<svg xmlns:dc="http://purl.org/dc/elements/1.1/" xmlns:cc="http://creativecommons.org/ns#" xmlns:rdf="http://www.w3.org/1999/02/22-rdf-syntax-ns#" xmlns:svg="http://www.w3.org/2000/svg" xmlns="http://www.w3.org/2000/svg" xmlns:sodipodi="http://sodipodi.sourceforge.net/DTD/sodipodi-0.dtd" xmlns:inkscape="http://www.inkscape.org/namespaces/inkscape" id="svg3033" version="1.1" inkscape:version="0.48.1 " width="837.1" height="406.45" xml:space="preserve" sodipodi:docname="nebraska.pdf"><metadata id="metadata3039"><rdf:RDF><cc:Work rdf:about=""><dc:format>image/svg+xml</dc:format><dc:type rdf:resource="http://purl.org/dc/dcmitype/StillImage"/><dc:title/></cc:Work></rdf:RDF></metadata><defs id="defs3037"/><sodipodi:namedview pagecolor="#ffffff" bordercolor="#666666" borderopacity="1" objecttolerance="10" gridtolerance="10" guidetolerance="10" inkscape:pageopacity="0" inkscape:pageshadow="2" inkscape:window-width="640" inkscape:window-height="480" id="namedview3035" showgrid="false" inkscape:zoom="0.57340821" inkscape:cx="418.54999" inkscape:cy="203.22501" inkscape:window-x="494" inkscape:window-y="149" inkscape:window-maximized="0" inkscape:current-layer="g3041"/><g id="g3041" inkscape:groupmode="layer" inkscape:label="nebraska" transform="matrix(1.25,0,0,-1.25,0,406.45)"><g id="g3043" transform="scale(0.24,0.24)"><path d="m 12.4453,511.953 74.7422,830.437 323.8785,-6.25 355.024,-3.12 582.36,-21.85 283.4,-3.13 59.17,0 21.8,-12.48 34.25,-56.2 24.92,-21.85 24.91,-9.37 115.23,0 21.8,-21.85 59.17,-21.85 56.06,-21.86 43.6,6.25 34.25,0 49.83,-3.13 12.46,-12.48 18.68,-6.25 24.92,-24.97 31.14,-28.1 24.91,-6.24 12.46,-6.25 40.48,3.13 12.46,0 12.46,-6.25 34.26,-18.73 21.79,-15.61 15.58,-21.86 21.79,-12.481 21.81,-31.218 18.68,-49.953 0,-18.731 12.46,-21.852 28.03,-53.074 59.17,-99.902 15.57,-53.07 6.23,-40.59 15.57,-49.946 37.37,-56.199 15.57,-9.367 3.11,-18.727 0,-21.855 -6.23,-37.465 -9.34,-9.363 0,-53.074 12.46,-9.364 24.91,-31.222 21.8,-34.336 9.35,-31.223 9.34,-49.953 9.34,-49.949 -9.34,-59.3127 12.45,-43.711 9.35,-40.5859 0,-3.1211 -252.25,0 -579.25,6.2422 -731.85,12.4883 -510.731,12.4883 -87.2,-3.1211 18.684,446.437 -569.9024,24.973 -52.9453,0 0,0" style="fill:#c63341;fill-opacity:1;fill-rule:nonzero;stroke:none" id="path3045"/><path d="m 24.8945,510.773 c 18.3828,204.231 36.7618,408.454 55.1446,612.677 6.5312,72.59 13.0625,145.18 19.5976,217.76 -4.5429,-3.76 -9.0859,-7.51 -13.6289,-11.27 192.7262,-3.72 385.3632,-6.78 578.1172,-8.48 194.836,-1.71 389.545,-11.72 584.235,-19.03 71.38,-2.68 142.49,-4.19 213.93,-4.98 54.5,-0.6 109.01,-1.2 163.51,-1.8 17.2,-0.19 34.39,-0.05 51.58,-0.05 2.69,0 5.39,0 8.07,0 8.96,0 -4.66,3.96 0.67,0.91 5.75,-3.3 11.51,-6.6 17.26,-9.89 5.64,-3.23 -3.4,6.11 -1.18,2.47 1.05,-1.74 2.11,-3.47 3.17,-5.2 4.42,-7.26 8.86,-14.53 13.28,-21.8 5.71,-9.36 11.42,-18.73 17.13,-28.09 6.31,-10.35 19.53,-18.39 28.55,-26.3 17.47,-15.32 47.5,-12 68.36,-12 20.78,0 41.56,0 62.34,0 3.6,0 7.2,0 10.81,0 7.67,0 2.7,-1.6 -2.82,3.93 4.39,-4.4 8.78,-8.81 13.18,-13.21 7.73,-7.74 13.18,-11.78 23.37,-15.54 22.06,-8.15 44.13,-16.2 66.04,-24.74 12.63,-4.92 25.27,-9.85 37.91,-14.77 9.58,-3.74 24.02,1.22 33.67,2.61 5.75,0.82 11.5,1.64 17.25,2.47 -4.99,-0.72 9.8,-0.07 12.29,-0.07 10.75,0 21.3,-0.14 32.02,-0.81 8,-0.5 16,-1 23.99,-1.5 3.08,-0.19 6.15,-0.39 9.23,-0.58 6.56,-0.41 0.74,-1.29 -3.97,3.44 10.06,-10.1 16.23,-15.19 29.73,-19.71 4.58,-1.52 6.61,-4.24 1.14,1.24 1.74,-1.73 3.47,-3.48 5.2,-5.21 5.31,-5.32 10.62,-10.64 15.93,-15.96 7.72,-7.75 16.09,-14.88 24.2,-22.2 8.51,-7.67 13.22,-12.34 24.27,-15.11 9.77,-2.45 22.24,-10.12 31.76,-11.02 11.78,-1.1 24.98,1.81 36.73,2.72 9.29,0.71 17.15,-0.61 23.11,-3.87 10.72,-5.86 21.45,-11.72 32.16,-17.58 3.31,-1.81 6.28,-4.21 9.34,-6.4 3.14,-2.25 6.27,-4.5 9.41,-6.75 5.13,-3.67 2.18,-0.98 3.97,-3.49 6.34,-8.9 11.41,-18.922 21.02,-24.43 15.64,-8.957 15.34,-8.512 25.63,-23.25 3.53,-5.051 7.06,-10.097 10.58,-15.152 -3.17,4.551 1.95,-6.774 2.6,-8.52 4.83,-12.937 9.67,-25.867 14.51,-38.8 -3.25,8.683 -1.02,3.402 -1.02,-1.192 0,-3.441 0,-6.879 0,-10.32 0,-5.102 1.42,-8.055 3.85,-12.305 5.07,-8.894 10.1,-17.769 14.88,-26.82 9.78,-18.512 19.23,-37.168 29.9,-55.18 15.52,-26.207 31.04,-52.41 46.56,-78.613 1.74,-2.942 3.49,-5.891 5.23,-8.836 -2.3,3.894 0.79,-2.305 1.81,-5.754 4.23,-14.434 8.46,-28.863 12.7,-43.293 5.87,-20.012 6.35,-41.043 12.62,-61.184 3.43,-10.98 5.69,-23.605 10.64,-34.035 4.84,-10.222 13.08,-19.754 19.32,-29.133 6.54,-9.839 13.09,-19.683 19.63,-29.523 2.43,-3.656 8.42,-5.953 11.98,-8.094 8.01,-4.816 2.36,-3.883 1.16,3.348 0.77,-4.664 1.55,-9.324 2.33,-13.984 0.74,-4.465 1.21,-17.782 -0.26,-26.637 -1.23,-7.375 -2.45,-14.746 -3.68,-22.121 -0.49,-2.949 -0.98,-5.895 -1.47,-8.844 -0.81,-3.98 0.21,-2.215 3.05,5.305 -1.7,-1.696 -3.39,-3.399 -5.09,-5.094 -13.96,-13.988 -7.64,-45.977 -7.64,-64.727 0,-6.777 3.47,-10.066 8.5,-13.847 6,-4.508 6.75,-4.629 9.46,-8.032 4.52,-5.66 9.03,-11.32 13.55,-16.984 2.06,-2.578 4.12,-5.16 6.18,-7.742 3.99,-5.012 0.24,0.394 1.89,-2.195 16.48,-25.95 24.93,-38.602 30.67,-69.25 5.34,-28.547 10.67,-57.094 16.01,-85.637 1.56,-8.344 1.35,0.308 0.12,-7.531 -1.29,-8.161 -2.57,-16.325 -3.86,-24.489 -1.77,-11.269 -6.73,-25.297 -3.51,-36.6052 6.67,-23.3984 20.64,-60.1054 20.64,-80.4609 4.54,3.7539 9.08,7.5078 13.63,11.2656 -186.9,0 -373.69,1.3086 -560.58,3.3243 -168.81,1.8203 -337.59,4.0585 -506.39,6.9335 -182.46,3.1172 -364.96,5.2579 -547.38,9.7188 -182.122,4.4531 -364.829,14.6367 -546.931,8.1211 3.754,-4.543 7.512,-9.0859 11.266,-13.6289 6.23,148.8127 12.457,297.6247 18.687,446.4377 0.274,6.527 -4.207,13.316 -11.265,13.625 -189.497,8.304 -378.993,16.609 -568.4848,24.914 -18.0625,0.789 -36.2852,0.062 -54.3633,0.062 -16.00781,0 -18.46093,-24.894 -2.3633,-24.894 81.4336,0 162.6874,-4.809 244.0394,-8.375 117.953,-5.172 235.91,-10.34 353.867,-15.508 8.316,-0.363 16.629,-0.73 24.941,-1.094 -3.754,4.543 -7.511,9.086 -11.265,13.629 C 616.617,339.348 610.391,190.535 604.16,41.7227 603.902,35.6211 608.367,27.8438 615.43,28.0977 810.832,35.0898 1007.02,23.7773 1202.45,19 1396.36,14.2539 1590.38,12.2969 1784.33,8.98828 1955.81,6.05859 2127.3,4.28125 2298.8,2.43359 2458.13,0.714844 2617.37,0 2776.7,0 c 6.29,0 13.63,4.00391 13.63,11.2656 0,15.6875 -5.97,31.836 -9.48,47.0547 -1.84,8 -4.53,15.8945 -6.78,23.7852 -1.3,4.6015 -2.62,9.2031 -3.93,13.8047 -0.42,1.4843 -0.84,2.9687 -1.27,4.4488 -1.14,4.036 -0.68,-3.859 -0.12,-0.293 2.97,18.848 5.94,37.7 8.91,56.551 2.44,15.469 -5.79,36.113 -8.64,51.34 -2.97,15.859 -5.93,31.719 -8.89,47.582 -2.34,12.488 -4.97,29.945 -11.71,40.563 -18.22,28.699 -35.5,58.683 -63.02,79.359 1.76,-3.805 3.52,-7.609 5.28,-11.418 0,10.406 0,20.812 0,31.223 0,6.148 0,12.289 0,18.437 0,7.977 -8.16,-8.742 -1.07,-1.644 2.62,2.636 6.04,5.347 8.2,8.433 6.1,8.715 5.53,25.942 7.21,36.028 1.71,10.332 2.81,22.285 1.09,32.628 -1.78,10.731 -1.16,22.536 -11.34,28.657 -3.13,1.886 -6.26,3.769 -9.39,5.652 -5.99,3.598 0.16,-1.629 -1.41,0.731 -3.45,5.191 -6.91,10.386 -10.36,15.582 -7.92,11.91 -15.84,23.824 -23.77,35.734 -5.76,8.672 1.66,-6.691 -0.82,1.281 -2.46,7.867 -4.91,15.735 -7.36,23.602 -6.59,21.113 -7.37,43.039 -13.52,63.976 -5.6,19.102 -8.59,42.578 -18.79,59.793 -25.44,42.965 -51.33,85.532 -74.65,129.684 -4.25,8.062 -8.41,16.18 -12.92,24.101 -3.14,5.504 -6.28,11.012 -9.42,16.52 3.27,-5.734 0.81,-4.953 0.81,1.441 0,3.786 0,7.571 0,11.356 0,10.258 -7,22.164 -10.5,31.523 -3.65,9.766 -6.29,20.809 -12.31,29.426 -6.86,9.832 -13.73,19.66 -20.59,29.488 -2.7,3.855 -9.41,6.195 -13.26,8.395 -8.1,4.64 -8.47,4 -11.9,8.81 -14.21,19.94 -30.4,31.63 -51.79,43.33 -19.8,10.83 -34.13,20.07 -57.3,18.29 -7.35,-0.57 -14.69,-1.13 -22.03,-1.7 -3.35,-0.25 -6.69,-0.52 -10.04,-0.77 -6.01,-0.46 -2.22,1.36 1.37,-0.45 -11.19,5.61 -21.64,8.32 -33.85,11.38 -5.27,1.32 1.83,-2.27 -1.1,0.37 -1.96,1.77 -3.92,3.54 -5.89,5.31 -5.56,5.02 -11.12,10.04 -16.69,15.06 -7.78,7.03 -13.46,12.99 -24.15,23.7 -8.26,8.29 -15.43,10.82 -26.58,14.54 -6.93,2.32 5.47,-5.86 -0.2,-0.18 -2.5,2.51 -5.01,5.02 -7.52,7.54 -3.75,3.76 -6.97,6.59 -12.53,6.94 -24.97,1.56 -49.63,3.01 -74.64,3.01 -9.84,0 -19.06,-1.28 -28.82,-2.67 -7.28,-1.05 -14.56,-2.09 -21.84,-3.13 -5.51,-0.79 -3.13,1.03 2.15,-1.03 -2.35,0.91 -4.69,1.83 -7.03,2.74 -21.7,8.46 -43.34,17.01 -65.18,25.07 -13.31,4.92 -26.62,9.83 -39.92,14.75 -3.96,1.46 -2.17,2 2.01,-2.19 -1.74,1.74 -3.49,3.49 -5.23,5.23 -5.24,5.26 -10.48,10.51 -15.72,15.76 -11.45,11.49 -51.23,4.79 -66.8,4.79 -9.24,0 -18.49,0 -27.73,0 -7.65,0 -15.29,0 -22.93,0 -8.11,0 -3.02,-0.86 -12.16,2.57 -15.22,5.73 -15.84,6.81 -28.86,18.22 -2.5,2.2 -5.01,4.41 -7.52,6.6 -4.91,4.31 3.99,-6.07 1.61,-2.14 -3.4,5.55 -6.79,11.11 -10.17,16.67 -7.32,12 -14.63,24 -21.95,36 -5.7,9.35 -15.81,13.14 -25.12,18.47 -16.62,9.52 -48.55,3.51 -66.97,3.51 -13.15,0 -26.3,0.29 -39.45,0.43 -63.22,0.7 -126.44,1.4 -189.66,2.09 -69.87,0.77 -139.61,3.79 -209.44,6.41 -197.635,7.42 -394.956,15.76 -592.71,17.5 -171.324,1.51 -342.558,4.61 -513.8628,7.92 -6.7813,0.12 -12.9805,-4.11 -13.625,-11.27 C 56.3594,1139.34 37.9805,935.113 19.5977,730.887 13.0664,658.305 6.53125,585.719 0,513.133 c -1.44922,-16.078 23.4531,-18.399 24.8945,-2.36" style="fill:#231f20;fill-opacity:1;fill-rule:nonzero;stroke:none" id="path3047"/><path d="m 24.8945,510.773 c 18.3828,204.231 36.7618,408.454 55.1446,612.677 6.5312,72.59 13.0625,145.18 19.5976,217.76 -4.5429,-3.76 -9.0859,-7.51 -13.6289,-11.27 192.7262,-3.72 385.3632,-6.78 578.1172,-8.48 194.836,-1.71 389.545,-11.72 584.235,-19.03 71.38,-2.68 142.49,-4.19 213.93,-4.98 54.5,-0.6 109.01,-1.2 163.51,-1.8 17.2,-0.19 34.39,-0.05 51.58,-0.05 2.69,0 5.39,0 8.07,0 8.96,0 -4.66,3.96 0.67,0.91 5.75,-3.3 11.51,-6.6 17.26,-9.89 5.64,-3.23 -3.4,6.11 -1.18,2.47 1.05,-1.74 2.11,-3.47 3.17,-5.2 4.42,-7.26 8.86,-14.53 13.28,-21.8 5.71,-9.36 11.42,-18.73 17.13,-28.09 6.31,-10.35 19.53,-18.39 28.55,-26.3 17.47,-15.32 47.5,-12 68.36,-12 20.78,0 41.56,0 62.34,0 3.6,0 7.2,0 10.81,0 7.67,0 2.7,-1.6 -2.82,3.93 4.39,-4.4 8.78,-8.81 13.18,-13.21 7.73,-7.74 13.18,-11.78 23.37,-15.54 22.06,-8.15 44.13,-16.2 66.04,-24.74 12.63,-4.92 25.27,-9.85 37.91,-14.77 9.58,-3.74 24.02,1.22 33.67,2.61 5.75,0.82 11.5,1.64 17.25,2.47 -4.99,-0.72 9.8,-0.07 12.29,-0.07 10.75,0 21.3,-0.14 32.02,-0.81 8,-0.5 16,-1 23.99,-1.5 3.08,-0.19 6.15,-0.39 9.23,-0.58 6.56,-0.41 0.74,-1.29 -3.97,3.44 10.06,-10.1 16.23,-15.19 29.73,-19.71 4.58,-1.52 6.61,-4.24 1.14,1.24 1.74,-1.73 3.47,-3.48 5.2,-5.21 5.31,-5.32 10.62,-10.64 15.93,-15.96 7.72,-7.75 16.09,-14.88 24.2,-22.2 8.51,-7.67 13.22,-12.34 24.27,-15.11 9.77,-2.45 22.24,-10.12 31.76,-11.02 11.78,-1.1 24.98,1.81 36.73,2.72 9.29,0.71 17.15,-0.61 23.11,-3.87 10.72,-5.86 21.45,-11.72 32.16,-17.58 3.31,-1.81 6.28,-4.21 9.34,-6.4 3.14,-2.25 6.27,-4.5 9.41,-6.75 5.13,-3.67 2.18,-0.98 3.97,-3.49 6.34,-8.9 11.41,-18.922 21.02,-24.43 15.64,-8.957 15.34,-8.512 25.63,-23.25 3.53,-5.051 7.06,-10.097 10.58,-15.152 -3.17,4.551 1.95,-6.774 2.6,-8.52 4.83,-12.937 9.67,-25.867 14.51,-38.8 -3.25,8.683 -1.02,3.402 -1.02,-1.192 0,-3.441 0,-6.879 0,-10.32 0,-5.102 1.42,-8.055 3.85,-12.305 5.07,-8.894 10.1,-17.769 14.88,-26.82 9.78,-18.512 19.23,-37.168 29.9,-55.18 15.52,-26.207 31.04,-52.41 46.56,-78.613 1.74,-2.942 3.49,-5.891 5.23,-8.836 -2.3,3.894 0.79,-2.305 1.81,-5.754 4.23,-14.434 8.46,-28.863 12.7,-43.293 5.87,-20.012 6.35,-41.043 12.62,-61.184 3.43,-10.98 5.69,-23.605 10.64,-34.035 4.84,-10.222 13.08,-19.754 19.32,-29.133 6.54,-9.839 13.09,-19.683 19.63,-29.523 2.43,-3.656 8.42,-5.953 11.98,-8.094 8.01,-4.816 2.36,-3.883 1.16,3.348 0.77,-4.664 1.55,-9.324 2.33,-13.984 0.74,-4.465 1.21,-17.782 -0.26,-26.637 -1.23,-7.375 -2.45,-14.746 -3.68,-22.121 -0.49,-2.949 -0.98,-5.895 -1.47,-8.844 -0.81,-3.98 0.21,-2.215 3.05,5.305 -1.7,-1.696 -3.39,-3.399 -5.09,-5.094 -13.96,-13.988 -7.64,-45.977 -7.64,-64.727 0,-6.777 3.47,-10.066 8.5,-13.847 6,-4.508 6.75,-4.629 9.46,-8.032 4.52,-5.66 9.03,-11.32 13.55,-16.984 2.06,-2.578 4.12,-5.16 6.18,-7.742 3.99,-5.012 0.24,0.394 1.89,-2.195 16.48,-25.95 24.93,-38.602 30.67,-69.25 5.34,-28.547 10.67,-57.094 16.01,-85.637 1.56,-8.344 1.35,0.308 0.12,-7.531 -1.29,-8.161 -2.57,-16.325 -3.86,-24.489 -1.77,-11.269 -6.73,-25.297 -3.51,-36.6052 6.67,-23.3984 20.64,-60.1054 20.64,-80.4609 4.54,3.7539 9.08,7.5078 13.63,11.2656 -186.9,0 -373.69,1.3086 -560.58,3.3243 -168.81,1.8203 -337.59,4.0585 -506.39,6.9335 -182.46,3.1172 -364.96,5.2579 -547.38,9.7188 -182.122,4.4531 -364.829,14.6367 -546.931,8.1211 3.754,-4.543 7.512,-9.0859 11.266,-13.6289 6.23,148.8127 12.457,297.6247 18.687,446.4377 0.274,6.527 -4.207,13.316 -11.265,13.625 -189.497,8.304 -378.993,16.609 -568.4848,24.914 -18.0625,0.789 -36.2852,0.062 -54.3633,0.062 -16.00781,0 -18.46093,-24.894 -2.3633,-24.894 81.4336,0 162.6874,-4.809 244.0394,-8.375 117.953,-5.172 235.91,-10.34 353.867,-15.508 8.316,-0.363 16.629,-0.73 24.941,-1.094 -3.754,4.543 -7.511,9.086 -11.265,13.629 C 616.617,339.348 610.391,190.535 604.16,41.7227 603.902,35.6211 608.367,27.8438 615.43,28.0977 810.832,35.0898 1007.02,23.7773 1202.45,19 1396.36,14.2539 1590.38,12.2969 1784.33,8.98828 1955.81,6.05859 2127.3,4.28125 2298.8,2.43359 2458.13,0.714844 2617.37,0 2776.7,0 c 6.29,0 13.63,4.00391 13.63,11.2656 0,15.6875 -5.97,31.836 -9.48,47.0547 -1.84,8 -4.53,15.8945 -6.78,23.7852 -1.3,4.6015 -2.62,9.2031 -3.93,13.8047 -0.42,1.4843 -0.84,2.9687 -1.27,4.4488 -1.14,4.036 -0.68,-3.859 -0.12,-0.293 2.97,18.848 5.94,37.7 8.91,56.551 2.44,15.469 -5.79,36.113 -8.64,51.34 -2.97,15.859 -5.93,31.719 -8.89,47.582 -2.34,12.488 -4.97,29.945 -11.71,40.563 -18.22,28.699 -35.5,58.683 -63.02,79.359 1.76,-3.805 3.52,-7.609 5.28,-11.418 0,10.406 0,20.812 0,31.223 0,6.148 0,12.289 0,18.437 0,7.977 -8.16,-8.742 -1.07,-1.644 2.62,2.636 6.04,5.347 8.2,8.433 6.1,8.715 5.53,25.942 7.21,36.028 1.71,10.332 2.81,22.285 1.09,32.628 -1.78,10.731 -1.16,22.536 -11.34,28.657 -3.13,1.886 -6.26,3.769 -9.39,5.652 -5.99,3.598 0.16,-1.629 -1.41,0.731 -3.45,5.191 -6.91,10.386 -10.36,15.582 -7.92,11.91 -15.84,23.824 -23.77,35.734 -5.76,8.672 1.66,-6.691 -0.82,1.281 -2.46,7.867 -4.91,15.735 -7.36,23.602 -6.59,21.113 -7.37,43.039 -13.52,63.976 -5.6,19.102 -8.59,42.578 -18.79,59.793 -25.44,42.965 -51.33,85.532 -74.65,129.684 -4.25,8.062 -8.41,16.18 -12.92,24.101 -3.14,5.504 -6.28,11.012 -9.42,16.52 3.27,-5.734 0.81,-4.953 0.81,1.441 0,3.786 0,7.571 0,11.356 0,10.258 -7,22.164 -10.5,31.523 -3.65,9.766 -6.29,20.809 -12.31,29.426 -6.86,9.832 -13.73,19.66 -20.59,29.488 -2.7,3.855 -9.41,6.195 -13.26,8.395 -8.1,4.64 -8.47,4 -11.9,8.81 -14.21,19.94 -30.4,31.63 -51.79,43.33 -19.8,10.83 -34.13,20.07 -57.3,18.29 -7.35,-0.57 -14.69,-1.13 -22.03,-1.7 -3.35,-0.25 -6.69,-0.52 -10.04,-0.77 -6.01,-0.46 -2.22,1.36 1.37,-0.45 -11.19,5.61 -21.64,8.32 -33.85,11.38 -5.27,1.32 1.83,-2.27 -1.1,0.37 -1.96,1.77 -3.92,3.54 -5.89,5.31 -5.56,5.02 -11.12,10.04 -16.69,15.06 -7.78,7.03 -13.46,12.99 -24.15,23.7 -8.26,8.29 -15.43,10.82 -26.58,14.54 -6.93,2.32 5.47,-5.86 -0.2,-0.18 -2.5,2.51 -5.01,5.02 -7.52,7.54 -3.75,3.76 -6.97,6.59 -12.53,6.94 -24.97,1.56 -49.63,3.01 -74.64,3.01 -9.84,0 -19.06,-1.28 -28.82,-2.67 -7.28,-1.05 -14.56,-2.09 -21.84,-3.13 -5.51,-0.79 -3.13,1.03 2.15,-1.03 -2.35,0.91 -4.69,1.83 -7.03,2.74 -21.7,8.46 -43.34,17.01 -65.18,25.07 -13.31,4.92 -26.62,9.83 -39.92,14.75 -3.96,1.46 -2.17,2 2.01,-2.19 -1.74,1.74 -3.49,3.49 -5.23,5.23 -5.24,5.26 -10.48,10.51 -15.72,15.76 -11.45,11.49 -51.23,4.79 -66.8,4.79 -9.24,0 -18.49,0 -27.73,0 -7.65,0 -15.29,0 -22.93,0 -8.11,0 -3.02,-0.86 -12.16,2.57 -15.22,5.73 -15.84,6.81 -28.86,18.22 -2.5,2.2 -5.01,4.41 -7.52,6.6 -4.91,4.31 3.99,-6.07 1.61,-2.14 -3.4,5.55 -6.79,11.11 -10.17,16.67 -7.32,12 -14.63,24 -21.95,36 -5.7,9.35 -15.81,13.14 -25.12,18.47 -16.62,9.52 -48.55,3.51 -66.97,3.51 -13.15,0 -26.3,0.29 -39.45,0.43 -63.22,0.7 -126.44,1.4 -189.66,2.09 -69.87,0.77 -139.61,3.79 -209.44,6.41 -197.635,7.42 -394.956,15.76 -592.71,17.5 -171.324,1.51 -342.558,4.61 -513.8628,7.92 -6.7813,0.12 -12.9805,-4.11 -13.625,-11.27 C 56.3594,1139.34 37.9805,935.113 19.5977,730.887 13.0664,658.305 6.53125,585.719 0,513.133 c -1.44922,-16.078 23.4531,-18.399 24.8945,-2.36" style="fill:#231f20;fill-opacity:1;fill-rule:nonzero;stroke:none" id="path3049"/></g></g></svg>
